<svg xmlns="http://www.w3.org/2000/svg" width="88" height="173.9" viewBox="0 0 88 173.9"><path fill="#b4fff4" d="M80.2 128.8l-12.8-21.2c2.4-8.2 4.2-17.3 4.2-26.3q0-1.8-.1-3.5c-1.3-23.6-10.4-32.1-17.2-38.9-3.2-3.2-5.7-6-7.5-9.9v-.2a7.4 7.4 0 0 0 2.9-1 4.1 4.1 0 0 0 1.9-3.6l-.4-.9c-.6-.6-2.2-.9-4.8-1a14.9 14.9 0 0 1 0-4.6c.1-.8.1-.8 1.3-.9h.2a1.7 1.7 0 0 0 1.4-.9c.5-.9-.1-2-.5-2.6v-.2l-.2-.4c-2-4.5-2.9-7.7-2.9-9.5s-.5-2.8-1-3a1.1 1.1 0 0 0-1.2 0c-.2.1-1 .6-1 3.1s-.5 3.8-2.8 9.6v.5a4.1 4.1 0 0 0-.7 1.9 1.6 1.6 0 0 0 .2.7 1.7 1.7 0 0 0 1.4.9h.2c1.2.1 1.2.1 1.3.9a22.3 22.3 0 0 1 .2 2.8 10.4 10.4 0 0 1-.1 1.8c-2.6.1-4.3.4-4.8 1l-.4.9a4.1 4.1 0 0 0 1.9 3.6 7.4 7.4 0 0 0 2.9 1v.1c-1.7 4-4.5 6.8-7.8 10.1-6.8 6.8-15.9 15.3-17.2 38.8q-.1 1.8-.1 3.5c0 9 1.9 18.1 4.2 26.3L7.8 128.8 0 173.9h8.8l8.2-28.6 13.8-11.5.5.2 1.5.5c.2 1.4.5 2.9.7 3.9s.5 2.5 6.9 2.9V174h7.2v-32.8c6.8-.4 7.1-2.2 7.2-2.9s.4-2.5.7-3.9l1.5-.5h.3L71 145.3l8.2 28.6H88z"/></svg>