<svg xmlns="http://www.w3.org/2000/svg" viewBox="0 0 125.39 247.77" width="125.39" height="247.77"><defs><style>.cls-1{fill:#b4fff4}</style></defs><g id="Layer_2"><path id="Layer_1-2" d="M114.31 183.55L96 153.38c3.39-11.64 6-24.72 6-37.48q0-2.52-.14-5C100.05 77.19 87 65.12 77.33 55.42c-4.61-4.61-8.13-8.59-10.62-14.18l-.13-.24a10.6 10.6 0 0 0 4.11-1.37 5.78 5.78 0 0 0 2.71-5.11l-.52-1.21c-.8-.8-3.12-1.28-6.88-1.44a21.24 21.24 0 0 1 .07-6.5c.15-1.16.15-1.16 1.8-1.35h.33a2.38 2.38 0 0 0 2-1.27c.65-1.31-.21-2.81-.72-3.71l-.16-.28-.23-.58c-2.62-6.45-4-11-4-13.49 0-3.24-.78-4.06-1.37-4.4a1.62 1.62 0 0 0-1.64 0c-.34.2-1.4.8-1.4 4.4 0 1.66-.7 5.38-4 13.63l-.17.42-.17.3a5.8 5.8 0 0 0-1 2.68 2.33 2.33 0 0 0 .24 1 2.39 2.39 0 0 0 2 1.27L58 24c1.65.19 1.65.19 1.8 1.35a31.73 31.73 0 0 1 .31 4 14.77 14.77 0 0 1-.21 2.54c-3.77.16-6.1.64-6.91 1.44l-.52 1.21a5.78 5.78 0 0 0 2.71 5.11A10.59 10.59 0 0 0 59.26 41l-.13.3C56.69 46.94 52.67 51 48 55.61c-9.69 9.69-22.68 21.74-24.56 55.27q-.14 2.5-.14 5c0 12.76 2.66 25.84 6 37.48l-18.22 30.19L0 247.77h12.51L24.19 207l19.63-16.45.71.28a20.82 20.82 0 0 0 2.16.7c.34 2 .72 4.17 1 5.49.19 1 .66 3.5 9.86 4.14v46.6h10.3V201.2c9.66-.58 10.13-3.12 10.31-4.12.27-1.34.64-3.49 1-5.53a21.33 21.33 0 0 0 2.15-.7l.42-.18L101.2 207l11.68 40.79h12.51z" class="cls-1"/></g></svg>